<svg width="85" height="113" viewBox="0 0 85 113" fill="none" xmlns="http://www.w3.org/2000/svg">
<g id="Objects" clip-path="url(#clip0_2727_354)">
<g id="symbol">
<g id="Group">
<path id="Vector" d="M67.6293 24.5762C56.6746 24.5762 49.717 27.8737 42.9898 31.0563C36.827 33.9862 30.9983 36.7437 21.8751 36.7437C15.842 36.7536 9.88723 35.3817 4.46963 32.7338C3.31772 32.2283 2.16578 31.6538 0.921708 31.0908L0.0117188 30.6657V67.4323C0.0117188 102.326 42.4944 112.989 42.4944 112.989C42.4944 112.989 84.9772 102.326 84.9772 67.4323V27.7933C79.455 25.6207 73.5653 24.5285 67.6293 24.5762ZM74.3335 67.4438C74.3335 77.9798 68.9424 86.9761 58.2987 94.1686C53.3852 97.4221 48.0688 100.025 42.4829 101.913C34.4195 99.2355 10.6554 89.4234 10.6554 67.4438V47.4864C14.2893 48.6011 18.0734 49.1514 21.8751 49.1179C31.0098 49.1179 36.85 46.3605 42.9898 43.4306C49.717 40.2365 56.6976 36.9505 67.6293 36.9505C69.8715 36.9406 72.1116 37.0865 74.3335 37.3871V67.4438Z" fill="white"/>
<path id="Vector_2" d="M74.3335 0.448039C72.0964 0.143674 69.8409 -0.00606427 67.5832 -7.1155e-05C56.6169 -7.1155e-05 49.6594 3.28596 42.9322 6.48007C36.7694 9.40991 30.9407 12.1674 21.8175 12.1674C18.0365 12.1875 14.2739 11.6414 10.6554 10.5474C7.30088 9.44463 4.03538 8.08878 0.887187 6.49157L0.0117188 6.07793V18.4982L0.887187 18.9118C4.0334 20.5101 7.29928 21.8623 10.6554 22.9561C14.2714 24.0614 18.0357 24.6078 21.8175 24.5762C30.9522 24.5762 36.7925 21.8186 42.9437 18.8888C49.6709 15.7062 56.64 12.4087 67.5832 12.4087C69.845 12.4069 72.1042 12.5605 74.3449 12.8683C77.9954 13.3668 81.5726 14.3003 85.0002 15.6488V3.24C81.569 1.88814 77.988 0.95082 74.3335 0.448039Z" fill="white"/>
</g>
</g>
</g>
<defs>
<clipPath id="clip0_2727_354">
<rect width="85" height="113" fill="white"/>
</clipPath>
</defs>
</svg>
